<?xml version="1.0" encoding="UTF-8"?>
<!DOCTYPE svg PUBLIC "-//W3C//DTD SVG 1.1//EN" "http://www.w3.org/Graphics/SVG/1.1/DTD/svg11.dtd">
<svg xmlns="http://www.w3.org/2000/svg" version="1.1" width="363px" height="277px" style="shape-rendering:geometricPrecision; text-rendering:geometricPrecision; image-rendering:optimizeQuality; fill-rule:evenodd; clip-rule:evenodd" xmlns:xlink="http://www.w3.org/1999/xlink">
<g><path style="opacity:1" fill="#fefefe" d="M -0.5,-0.5 C 120.5,-0.5 241.5,-0.5 362.5,-0.5C 362.5,91.8333 362.5,184.167 362.5,276.5C 241.5,276.5 120.5,276.5 -0.5,276.5C -0.5,184.167 -0.5,91.8333 -0.5,-0.5 Z"/></g>
<g><path style="opacity:1" fill="#717171" d="M 175.5,101.5 C 175.167,101.5 174.833,101.5 174.5,101.5C 174.5,95.8333 174.5,90.1667 174.5,84.5C 147.167,84.5 119.833,84.5 92.5,84.5C 92.5,90.1667 92.5,95.8333 92.5,101.5C 91.5104,95.69 91.1771,89.69 91.5,83.5C 119.5,83.5 147.5,83.5 175.5,83.5C 175.5,89.5 175.5,95.5 175.5,101.5 Z"/></g>
<g><path style="opacity:1" fill="#040404" d="M 174.5,101.5 C 164.5,101.5 154.5,101.5 144.5,101.5C 144.5,131.5 144.5,161.5 144.5,191.5C 137.5,191.5 130.5,191.5 123.5,191.5C 123.5,161.5 123.5,131.5 123.5,101.5C 113.167,101.5 102.833,101.5 92.5,101.5C 92.5,95.8333 92.5,90.1667 92.5,84.5C 119.833,84.5 147.167,84.5 174.5,84.5C 174.5,90.1667 174.5,95.8333 174.5,101.5 Z"/></g>
<g><path style="opacity:1" fill="#ac83ff" d="M 239.5,84.5 C 224.167,84.5 208.833,84.5 193.5,84.5C 193.5,120.167 193.5,155.833 193.5,191.5C 192.502,155.671 192.168,119.671 192.5,83.5C 208.342,83.1704 224.009,83.5037 239.5,84.5 Z"/></g>
<g><path style="opacity:1" fill="#8c53ff" d="M 239.5,84.5 C 252.29,85.3174 261.624,91.3174 267.5,102.5C 269.257,110.018 269.924,117.685 269.5,125.5C 269.5,125.833 269.5,126.167 269.5,126.5C 268.129,128.936 267.129,131.603 266.5,134.5C 260.685,144.254 252.018,149.754 240.5,151C 231.506,151.5 222.506,151.666 213.5,151.5C 213.5,164.833 213.5,178.167 213.5,191.5C 206.833,191.5 200.167,191.5 193.5,191.5C 193.5,155.833 193.5,120.167 193.5,84.5C 208.833,84.5 224.167,84.5 239.5,84.5 Z"/></g>
<g><path style="opacity:1" fill="#d2bbff" d="M 236.5,101.5 C 229.167,101.5 221.833,101.5 214.5,101.5C 214.5,112.5 214.5,123.5 214.5,134.5C 213.505,123.346 213.172,112.012 213.5,100.5C 221.352,100.175 229.018,100.508 236.5,101.5 Z"/></g>
<g><path style="opacity:1" fill="#fefdff" d="M 236.5,101.5 C 242.649,102.32 246.649,105.654 248.5,111.5C 248.754,116.969 248.087,122.303 246.5,127.5C 244.35,131.413 241.016,133.58 236.5,134C 229.174,134.5 221.841,134.666 214.5,134.5C 214.5,123.5 214.5,112.5 214.5,101.5C 221.833,101.5 229.167,101.5 236.5,101.5 Z"/></g>
<g><path style="opacity:1" fill="#a8a8a8" d="M 92.5,101.5 C 102.833,101.5 113.167,101.5 123.5,101.5C 123.5,131.5 123.5,161.5 123.5,191.5C 122.502,162.005 122.169,132.338 122.5,102.5C 112.319,102.827 102.319,102.494 92.5,101.5 Z"/></g>
<g><path style="opacity:1" fill="#c1c1c1" d="M 174.5,101.5 C 174.833,101.5 175.167,101.5 175.5,101.5C 165.681,102.494 155.681,102.827 145.5,102.5C 145.831,132.338 145.498,162.005 144.5,191.5C 144.5,161.5 144.5,131.5 144.5,101.5C 154.5,101.5 164.5,101.5 174.5,101.5 Z"/></g>
<g><path style="opacity:1" fill="#c3a4ff" d="M 248.5,111.5 C 249.643,114.976 249.81,118.642 249,122.5C 248.901,124.653 248.067,126.319 246.5,127.5C 248.087,122.303 248.754,116.969 248.5,111.5 Z"/></g>
<g><path style="opacity:1" fill="#ba96ff" d="M 267.5,102.5 C 268.793,103.842 269.626,105.509 270,107.5C 270.819,113.681 270.653,119.681 269.5,125.5C 269.924,117.685 269.257,110.018 267.5,102.5 Z"/></g>
<g><path style="opacity:1" fill="#ccb0ff" d="M 269.5,126.5 C 269.655,129.716 268.655,132.383 266.5,134.5C 267.129,131.603 268.129,128.936 269.5,126.5 Z"/></g>
</svg>
